<mxfile host="Electron" modified="2024-06-17T07:19:56.913Z" agent="Mozilla/5.0 (Windows NT 10.0; Win64; x64) AppleWebKit/537.36 (KHTML, like Gecko) draw.io/22.0.0 Chrome/114.0.5735.289 Electron/25.8.3 Safari/537.36" etag="GvUp41TCg3rIDL_p4nab" version="22.0.0" type="device">
  <diagram name="Page-1" id="c9db0220-8083-56f3-ca83-edcdcd058819">
    <mxGraphModel dx="3043" dy="1407" grid="1" gridSize="10" guides="1" tooltips="1" connect="1" arrows="1" fold="1" page="1" pageScale="1.5" pageWidth="826" pageHeight="1169" background="none" math="0" shadow="0">
      <root>
        <mxCell id="0" style=";html=1;" />
        <mxCell id="1" style=";html=1;" parent="0" />
        <mxCell id="3d76a8aef4d5c911-1" value="" style="html=1;shadow=0;dashed=0;shape=mxgraph.bootstrap.rect;fillColor=#222222;strokeColor=none;whiteSpace=wrap;rounded=0;fontSize=12;fontColor=#000000;align=center;" parent="1" vertex="1">
          <mxGeometry x="40" y="70" width="1150" height="40" as="geometry" />
        </mxCell>
        <mxCell id="3d76a8aef4d5c911-2" value="About us" style="html=1;shadow=0;dashed=0;fillColor=none;strokeColor=none;shape=mxgraph.bootstrap.rect;fontColor=#999999;fontSize=14;whiteSpace=wrap;" parent="3d76a8aef4d5c911-1" vertex="1">
          <mxGeometry width="115" height="40" as="geometry" />
        </mxCell>
        <mxCell id="BUIpe9fEhjHuu_V_Eg9c-1" value="Playlists" style="html=1;shadow=0;dashed=0;fillColor=none;strokeColor=none;shape=mxgraph.bootstrap.rect;fontColor=#999999;fontSize=14;whiteSpace=wrap;" parent="3d76a8aef4d5c911-1" vertex="1">
          <mxGeometry x="129.38" width="115" height="40" as="geometry" />
        </mxCell>
        <mxCell id="BUIpe9fEhjHuu_V_Eg9c-2" value="Form" style="html=1;shadow=0;dashed=0;fillColor=none;strokeColor=none;shape=mxgraph.bootstrap.rect;fontColor=#999999;fontSize=14;whiteSpace=wrap;" parent="3d76a8aef4d5c911-1" vertex="1">
          <mxGeometry x="260" width="115" height="40" as="geometry" />
        </mxCell>
        <mxCell id="BUIpe9fEhjHuu_V_Eg9c-3" value="&lt;font face=&quot;Poppins&quot;&gt;&lt;span style=&quot;font-size: 48px;&quot;&gt;Hi, and welcome to my website.&lt;/span&gt;&lt;/font&gt;" style="text;whiteSpace=wrap;html=1;" parent="1" vertex="1">
          <mxGeometry x="140" y="340" width="560" height="60" as="geometry" />
        </mxCell>
        <mxCell id="VgbVPBR_SHMyLfgXZPgQ-2" value="&lt;span style=&quot;font-size: 18px;&quot;&gt;This website was made to showcase my personal Spotify playlists.&lt;/span&gt;" style="text;html=1;align=center;verticalAlign=middle;resizable=0;points=[];autosize=1;strokeColor=none;fillColor=none;" vertex="1" parent="1">
          <mxGeometry x="140" y="473" width="550" height="40" as="geometry" />
        </mxCell>
        <mxCell id="VgbVPBR_SHMyLfgXZPgQ-3" value="" style="html=1;shadow=0;dashed=0;shape=mxgraph.bootstrap.rect;fillColor=#222222;strokeColor=none;whiteSpace=wrap;rounded=0;fontSize=12;fontColor=#000000;align=center;" vertex="1" parent="1">
          <mxGeometry x="1239" y="70" width="1150" height="40" as="geometry" />
        </mxCell>
        <mxCell id="VgbVPBR_SHMyLfgXZPgQ-4" value="About us" style="html=1;shadow=0;dashed=0;fillColor=none;strokeColor=none;shape=mxgraph.bootstrap.rect;fontColor=#999999;fontSize=14;whiteSpace=wrap;" vertex="1" parent="VgbVPBR_SHMyLfgXZPgQ-3">
          <mxGeometry width="115" height="40" as="geometry" />
        </mxCell>
        <mxCell id="VgbVPBR_SHMyLfgXZPgQ-5" value="Playlists" style="html=1;shadow=0;dashed=0;fillColor=none;strokeColor=none;shape=mxgraph.bootstrap.rect;fontColor=#999999;fontSize=14;whiteSpace=wrap;" vertex="1" parent="VgbVPBR_SHMyLfgXZPgQ-3">
          <mxGeometry x="129.38" width="115" height="40" as="geometry" />
        </mxCell>
        <mxCell id="VgbVPBR_SHMyLfgXZPgQ-6" value="Form" style="html=1;shadow=0;dashed=0;fillColor=none;strokeColor=none;shape=mxgraph.bootstrap.rect;fontColor=#999999;fontSize=14;whiteSpace=wrap;" vertex="1" parent="VgbVPBR_SHMyLfgXZPgQ-3">
          <mxGeometry x="260" width="115" height="40" as="geometry" />
        </mxCell>
        <mxCell id="VgbVPBR_SHMyLfgXZPgQ-7" value="" style="shape=triangle;strokeColor=none;fillColor=#000000;direction=south;rounded=0;shadow=1;fontSize=12;fontColor=#000000;align=center;html=1;" vertex="1" parent="1">
          <mxGeometry x="1320" y="257" width="10" height="5" as="geometry" />
        </mxCell>
        <mxCell id="VgbVPBR_SHMyLfgXZPgQ-8" value="" style="html=1;shadow=0;dashed=0;shape=mxgraph.bootstrap.rrect;rSize=5;strokeColor=#dddddd;rounded=0;fontSize=12;align=center;" vertex="1" parent="1">
          <mxGeometry x="1370" y="250" width="310" height="380" as="geometry" />
        </mxCell>
        <mxCell id="VgbVPBR_SHMyLfgXZPgQ-9" value="" style="shape=rect;fontSize=24;fillColor=#f0f0f0;strokeColor=none;fontColor=#999999;whiteSpace=wrap;" vertex="1" parent="VgbVPBR_SHMyLfgXZPgQ-8">
          <mxGeometry x="6.545294117647059" y="7.13" width="296.90705882352944" height="365.75" as="geometry" />
        </mxCell>
        <mxCell id="VgbVPBR_SHMyLfgXZPgQ-10" value="&lt;font color=&quot;#000000&quot;&gt;Playlist 1&lt;/font&gt;" style="html=1;shadow=0;dashed=0;shape=mxgraph.bootstrap.anchor;fontSize=26;align=left;whiteSpace=wrap;" vertex="1" parent="VgbVPBR_SHMyLfgXZPgQ-8">
          <mxGeometry x="98.72" y="28.5" width="112.56" height="38" as="geometry" />
        </mxCell>
        <mxCell id="VgbVPBR_SHMyLfgXZPgQ-11" value="Cras justo odio, dapibus ac facilisis in, egestas eget quam. Donec id elit non mi porta gravida at eget metus. Nullam id dolor id nibh ultricies vehicula ut id elit." style="html=1;shadow=0;dashed=0;shape=mxgraph.bootstrap.anchor;strokeColor=#dddddd;whiteSpace=wrap;align=left;verticalAlign=top;fontSize=14;whiteSpace=wrap;" vertex="1" parent="1">
          <mxGeometry x="1375" y="640" width="300" height="80" as="geometry" />
        </mxCell>
        <mxCell id="VgbVPBR_SHMyLfgXZPgQ-72" value="" style="html=1;shadow=0;dashed=0;shape=mxgraph.bootstrap.rrect;rSize=5;strokeColor=#dddddd;rounded=0;fontSize=12;align=center;" vertex="1" parent="1">
          <mxGeometry x="1700" y="250" width="310" height="380" as="geometry" />
        </mxCell>
        <mxCell id="VgbVPBR_SHMyLfgXZPgQ-73" value="" style="shape=rect;fontSize=24;fillColor=#f0f0f0;strokeColor=none;fontColor=#999999;whiteSpace=wrap;" vertex="1" parent="VgbVPBR_SHMyLfgXZPgQ-72">
          <mxGeometry x="6.545294117647059" y="7.13" width="296.90705882352944" height="365.75" as="geometry" />
        </mxCell>
        <mxCell id="VgbVPBR_SHMyLfgXZPgQ-74" value="&lt;font color=&quot;#000000&quot;&gt;Playlist 2&lt;/font&gt;" style="html=1;shadow=0;dashed=0;shape=mxgraph.bootstrap.anchor;fontSize=26;align=left;whiteSpace=wrap;" vertex="1" parent="VgbVPBR_SHMyLfgXZPgQ-72">
          <mxGeometry x="98.72" y="28.5" width="112.56" height="38" as="geometry" />
        </mxCell>
        <mxCell id="VgbVPBR_SHMyLfgXZPgQ-75" value="" style="html=1;shadow=0;dashed=0;shape=mxgraph.bootstrap.rrect;rSize=5;strokeColor=#dddddd;rounded=0;fontSize=12;align=center;" vertex="1" parent="1">
          <mxGeometry x="2030" y="250" width="310" height="380" as="geometry" />
        </mxCell>
        <mxCell id="VgbVPBR_SHMyLfgXZPgQ-76" value="" style="shape=rect;fontSize=24;fillColor=#f0f0f0;strokeColor=none;fontColor=#999999;whiteSpace=wrap;" vertex="1" parent="VgbVPBR_SHMyLfgXZPgQ-75">
          <mxGeometry x="6.545294117647059" y="7.13" width="296.90705882352944" height="365.75" as="geometry" />
        </mxCell>
        <mxCell id="VgbVPBR_SHMyLfgXZPgQ-77" value="&lt;font color=&quot;#000000&quot;&gt;Playlist 3&lt;/font&gt;" style="html=1;shadow=0;dashed=0;shape=mxgraph.bootstrap.anchor;fontSize=26;align=left;whiteSpace=wrap;" vertex="1" parent="VgbVPBR_SHMyLfgXZPgQ-75">
          <mxGeometry x="98.72" y="28.5" width="112.56" height="38" as="geometry" />
        </mxCell>
        <mxCell id="VgbVPBR_SHMyLfgXZPgQ-78" value="Cras justo odio, dapibus ac facilisis in, egestas eget quam. Donec id elit non mi porta gravida at eget metus. Nullam id dolor id nibh ultricies vehicula ut id elit." style="html=1;shadow=0;dashed=0;shape=mxgraph.bootstrap.anchor;strokeColor=#dddddd;whiteSpace=wrap;align=left;verticalAlign=top;fontSize=14;whiteSpace=wrap;" vertex="1" parent="1">
          <mxGeometry x="1705" y="640" width="300" height="80" as="geometry" />
        </mxCell>
        <mxCell id="VgbVPBR_SHMyLfgXZPgQ-79" value="Cras justo odio, dapibus ac facilisis in, egestas eget quam. Donec id elit non mi porta gravida at eget metus. Nullam id dolor id nibh ultricies vehicula ut id elit." style="html=1;shadow=0;dashed=0;shape=mxgraph.bootstrap.anchor;strokeColor=#dddddd;whiteSpace=wrap;align=left;verticalAlign=top;fontSize=14;whiteSpace=wrap;" vertex="1" parent="1">
          <mxGeometry x="2035" y="640" width="300" height="80" as="geometry" />
        </mxCell>
        <mxCell id="VgbVPBR_SHMyLfgXZPgQ-80" value="" style="shape=triangle;strokeColor=none;fillColor=#000000;direction=south;rounded=0;shadow=1;fontSize=12;fontColor=#000000;align=center;html=1;" vertex="1" parent="1">
          <mxGeometry x="1320" y="747" width="10" height="5" as="geometry" />
        </mxCell>
        <mxCell id="VgbVPBR_SHMyLfgXZPgQ-81" value="" style="html=1;shadow=0;dashed=0;shape=mxgraph.bootstrap.rrect;rSize=5;strokeColor=#dddddd;rounded=0;fontSize=12;align=center;" vertex="1" parent="1">
          <mxGeometry x="1370" y="740" width="310" height="380" as="geometry" />
        </mxCell>
        <mxCell id="VgbVPBR_SHMyLfgXZPgQ-82" value="" style="shape=rect;fontSize=24;fillColor=#f0f0f0;strokeColor=none;fontColor=#999999;whiteSpace=wrap;" vertex="1" parent="VgbVPBR_SHMyLfgXZPgQ-81">
          <mxGeometry x="6.545294117647059" y="7.13" width="296.90705882352944" height="365.75" as="geometry" />
        </mxCell>
        <mxCell id="VgbVPBR_SHMyLfgXZPgQ-83" value="&lt;font color=&quot;#000000&quot;&gt;Playlist 4&lt;/font&gt;" style="html=1;shadow=0;dashed=0;shape=mxgraph.bootstrap.anchor;fontSize=26;align=left;whiteSpace=wrap;" vertex="1" parent="VgbVPBR_SHMyLfgXZPgQ-81">
          <mxGeometry x="98.72" y="28.5" width="112.56" height="38" as="geometry" />
        </mxCell>
        <mxCell id="VgbVPBR_SHMyLfgXZPgQ-84" value="Cras justo odio, dapibus ac facilisis in, egestas eget quam. Donec id elit non mi porta gravida at eget metus. Nullam id dolor id nibh ultricies vehicula ut id elit." style="html=1;shadow=0;dashed=0;shape=mxgraph.bootstrap.anchor;strokeColor=#dddddd;whiteSpace=wrap;align=left;verticalAlign=top;fontSize=14;whiteSpace=wrap;" vertex="1" parent="1">
          <mxGeometry x="1375" y="1130" width="300" height="80" as="geometry" />
        </mxCell>
        <mxCell id="VgbVPBR_SHMyLfgXZPgQ-85" value="" style="html=1;shadow=0;dashed=0;shape=mxgraph.bootstrap.rrect;rSize=5;strokeColor=#dddddd;rounded=0;fontSize=12;align=center;" vertex="1" parent="1">
          <mxGeometry x="1700" y="740" width="310" height="380" as="geometry" />
        </mxCell>
        <mxCell id="VgbVPBR_SHMyLfgXZPgQ-86" value="" style="shape=rect;fontSize=24;fillColor=#f0f0f0;strokeColor=none;fontColor=#999999;whiteSpace=wrap;" vertex="1" parent="VgbVPBR_SHMyLfgXZPgQ-85">
          <mxGeometry x="6.545294117647059" y="7.13" width="296.90705882352944" height="365.75" as="geometry" />
        </mxCell>
        <mxCell id="VgbVPBR_SHMyLfgXZPgQ-87" value="&lt;font color=&quot;#000000&quot;&gt;Playlist 5&lt;/font&gt;" style="html=1;shadow=0;dashed=0;shape=mxgraph.bootstrap.anchor;fontSize=26;align=left;whiteSpace=wrap;" vertex="1" parent="VgbVPBR_SHMyLfgXZPgQ-85">
          <mxGeometry x="98.72" y="28.5" width="112.56" height="38" as="geometry" />
        </mxCell>
        <mxCell id="VgbVPBR_SHMyLfgXZPgQ-88" value="" style="html=1;shadow=0;dashed=0;shape=mxgraph.bootstrap.rrect;rSize=5;strokeColor=#dddddd;rounded=0;fontSize=12;align=center;" vertex="1" parent="1">
          <mxGeometry x="2030" y="740" width="310" height="380" as="geometry" />
        </mxCell>
        <mxCell id="VgbVPBR_SHMyLfgXZPgQ-89" value="" style="shape=rect;fontSize=24;fillColor=#f0f0f0;strokeColor=none;fontColor=#999999;whiteSpace=wrap;" vertex="1" parent="VgbVPBR_SHMyLfgXZPgQ-88">
          <mxGeometry x="6.545294117647059" y="7.13" width="296.90705882352944" height="365.75" as="geometry" />
        </mxCell>
        <mxCell id="VgbVPBR_SHMyLfgXZPgQ-90" value="&lt;font color=&quot;#000000&quot;&gt;Playlist 6&lt;/font&gt;" style="html=1;shadow=0;dashed=0;shape=mxgraph.bootstrap.anchor;fontSize=26;align=left;whiteSpace=wrap;" vertex="1" parent="VgbVPBR_SHMyLfgXZPgQ-88">
          <mxGeometry x="98.72" y="28.5" width="112.56" height="38" as="geometry" />
        </mxCell>
        <mxCell id="VgbVPBR_SHMyLfgXZPgQ-91" value="Cras justo odio, dapibus ac facilisis in, egestas eget quam. Donec id elit non mi porta gravida at eget metus. Nullam id dolor id nibh ultricies vehicula ut id elit." style="html=1;shadow=0;dashed=0;shape=mxgraph.bootstrap.anchor;strokeColor=#dddddd;whiteSpace=wrap;align=left;verticalAlign=top;fontSize=14;whiteSpace=wrap;" vertex="1" parent="1">
          <mxGeometry x="1705" y="1130" width="300" height="80" as="geometry" />
        </mxCell>
        <mxCell id="VgbVPBR_SHMyLfgXZPgQ-92" value="Cras justo odio, dapibus ac facilisis in, egestas eget quam. Donec id elit non mi porta gravida at eget metus. Nullam id dolor id nibh ultricies vehicula ut id elit." style="html=1;shadow=0;dashed=0;shape=mxgraph.bootstrap.anchor;strokeColor=#dddddd;whiteSpace=wrap;align=left;verticalAlign=top;fontSize=14;whiteSpace=wrap;" vertex="1" parent="1">
          <mxGeometry x="2035" y="1130" width="300" height="80" as="geometry" />
        </mxCell>
        <mxCell id="VgbVPBR_SHMyLfgXZPgQ-93" value="" style="shape=triangle;strokeColor=none;fillColor=#000000;direction=south;rounded=0;shadow=1;fontSize=12;fontColor=#000000;align=center;html=1;" vertex="1" parent="1">
          <mxGeometry x="1320" y="1237" width="10" height="5" as="geometry" />
        </mxCell>
        <mxCell id="VgbVPBR_SHMyLfgXZPgQ-94" value="" style="html=1;shadow=0;dashed=0;shape=mxgraph.bootstrap.rrect;rSize=5;strokeColor=#dddddd;rounded=0;fontSize=12;align=center;" vertex="1" parent="1">
          <mxGeometry x="1370" y="1230" width="310" height="380" as="geometry" />
        </mxCell>
        <mxCell id="VgbVPBR_SHMyLfgXZPgQ-95" value="" style="shape=rect;fontSize=24;fillColor=#f0f0f0;strokeColor=none;fontColor=#999999;whiteSpace=wrap;" vertex="1" parent="VgbVPBR_SHMyLfgXZPgQ-94">
          <mxGeometry x="6.545294117647059" y="7.13" width="296.90705882352944" height="365.75" as="geometry" />
        </mxCell>
        <mxCell id="VgbVPBR_SHMyLfgXZPgQ-96" value="&lt;font color=&quot;#000000&quot;&gt;Playlist 7&lt;/font&gt;" style="html=1;shadow=0;dashed=0;shape=mxgraph.bootstrap.anchor;fontSize=26;align=left;whiteSpace=wrap;" vertex="1" parent="VgbVPBR_SHMyLfgXZPgQ-94">
          <mxGeometry x="98.72" y="28.5" width="112.56" height="38" as="geometry" />
        </mxCell>
        <mxCell id="VgbVPBR_SHMyLfgXZPgQ-97" value="Cras justo odio, dapibus ac facilisis in, egestas eget quam. Donec id elit non mi porta gravida at eget metus. Nullam id dolor id nibh ultricies vehicula ut id elit." style="html=1;shadow=0;dashed=0;shape=mxgraph.bootstrap.anchor;strokeColor=#dddddd;whiteSpace=wrap;align=left;verticalAlign=top;fontSize=14;whiteSpace=wrap;" vertex="1" parent="1">
          <mxGeometry x="1375" y="1620" width="300" height="80" as="geometry" />
        </mxCell>
        <mxCell id="VgbVPBR_SHMyLfgXZPgQ-98" value="" style="html=1;shadow=0;dashed=0;shape=mxgraph.bootstrap.rrect;rSize=5;strokeColor=#dddddd;rounded=0;fontSize=12;align=center;" vertex="1" parent="1">
          <mxGeometry x="1700" y="1230" width="310" height="380" as="geometry" />
        </mxCell>
        <mxCell id="VgbVPBR_SHMyLfgXZPgQ-99" value="" style="shape=rect;fontSize=24;fillColor=#f0f0f0;strokeColor=none;fontColor=#999999;whiteSpace=wrap;" vertex="1" parent="VgbVPBR_SHMyLfgXZPgQ-98">
          <mxGeometry x="6.545294117647059" y="7.13" width="296.90705882352944" height="365.75" as="geometry" />
        </mxCell>
        <mxCell id="VgbVPBR_SHMyLfgXZPgQ-100" value="&lt;font color=&quot;#000000&quot;&gt;Playlist 8&lt;/font&gt;" style="html=1;shadow=0;dashed=0;shape=mxgraph.bootstrap.anchor;fontSize=26;align=left;whiteSpace=wrap;" vertex="1" parent="VgbVPBR_SHMyLfgXZPgQ-98">
          <mxGeometry x="98.72" y="28.5" width="112.56" height="38" as="geometry" />
        </mxCell>
        <mxCell id="VgbVPBR_SHMyLfgXZPgQ-101" value="" style="html=1;shadow=0;dashed=0;shape=mxgraph.bootstrap.rrect;rSize=5;strokeColor=#dddddd;rounded=0;fontSize=12;align=center;" vertex="1" parent="1">
          <mxGeometry x="2030" y="1230" width="310" height="380" as="geometry" />
        </mxCell>
        <mxCell id="VgbVPBR_SHMyLfgXZPgQ-102" value="" style="shape=rect;fontSize=24;fillColor=#f0f0f0;strokeColor=none;fontColor=#999999;whiteSpace=wrap;" vertex="1" parent="VgbVPBR_SHMyLfgXZPgQ-101">
          <mxGeometry x="6.545294117647059" y="7.13" width="296.90705882352944" height="365.75" as="geometry" />
        </mxCell>
        <mxCell id="VgbVPBR_SHMyLfgXZPgQ-103" value="&lt;font color=&quot;#000000&quot;&gt;Playlist 9&lt;/font&gt;" style="html=1;shadow=0;dashed=0;shape=mxgraph.bootstrap.anchor;fontSize=26;align=left;whiteSpace=wrap;" vertex="1" parent="VgbVPBR_SHMyLfgXZPgQ-101">
          <mxGeometry x="98.72" y="28.5" width="112.56" height="38" as="geometry" />
        </mxCell>
        <mxCell id="VgbVPBR_SHMyLfgXZPgQ-104" value="Cras justo odio, dapibus ac facilisis in, egestas eget quam. Donec id elit non mi porta gravida at eget metus. Nullam id dolor id nibh ultricies vehicula ut id elit." style="html=1;shadow=0;dashed=0;shape=mxgraph.bootstrap.anchor;strokeColor=#dddddd;whiteSpace=wrap;align=left;verticalAlign=top;fontSize=14;whiteSpace=wrap;" vertex="1" parent="1">
          <mxGeometry x="1705" y="1620" width="300" height="80" as="geometry" />
        </mxCell>
        <mxCell id="VgbVPBR_SHMyLfgXZPgQ-105" value="Cras justo odio, dapibus ac facilisis in, egestas eget quam. Donec id elit non mi porta gravida at eget metus. Nullam id dolor id nibh ultricies vehicula ut id elit." style="html=1;shadow=0;dashed=0;shape=mxgraph.bootstrap.anchor;strokeColor=#dddddd;whiteSpace=wrap;align=left;verticalAlign=top;fontSize=14;whiteSpace=wrap;" vertex="1" parent="1">
          <mxGeometry x="2035" y="1620" width="300" height="80" as="geometry" />
        </mxCell>
        <mxCell id="VgbVPBR_SHMyLfgXZPgQ-106" value="" style="html=1;shadow=0;dashed=0;shape=mxgraph.bootstrap.rect;fillColor=#222222;strokeColor=none;whiteSpace=wrap;rounded=0;fontSize=12;fontColor=#000000;align=center;" vertex="1" parent="1">
          <mxGeometry x="2478" y="70" width="1150" height="40" as="geometry" />
        </mxCell>
        <mxCell id="VgbVPBR_SHMyLfgXZPgQ-107" value="About us" style="html=1;shadow=0;dashed=0;fillColor=none;strokeColor=none;shape=mxgraph.bootstrap.rect;fontColor=#999999;fontSize=14;whiteSpace=wrap;" vertex="1" parent="VgbVPBR_SHMyLfgXZPgQ-106">
          <mxGeometry width="115" height="40" as="geometry" />
        </mxCell>
        <mxCell id="VgbVPBR_SHMyLfgXZPgQ-108" value="Playlists" style="html=1;shadow=0;dashed=0;fillColor=none;strokeColor=none;shape=mxgraph.bootstrap.rect;fontColor=#999999;fontSize=14;whiteSpace=wrap;" vertex="1" parent="VgbVPBR_SHMyLfgXZPgQ-106">
          <mxGeometry x="129.38" width="115" height="40" as="geometry" />
        </mxCell>
        <mxCell id="VgbVPBR_SHMyLfgXZPgQ-109" value="Form" style="html=1;shadow=0;dashed=0;fillColor=none;strokeColor=none;shape=mxgraph.bootstrap.rect;fontColor=#999999;fontSize=14;whiteSpace=wrap;" vertex="1" parent="VgbVPBR_SHMyLfgXZPgQ-106">
          <mxGeometry x="260" width="115" height="40" as="geometry" />
        </mxCell>
        <mxCell id="VgbVPBR_SHMyLfgXZPgQ-112" value="" style="rounded=1;whiteSpace=wrap;html=1;" vertex="1" parent="1">
          <mxGeometry x="2773" y="320" width="650" height="50" as="geometry" />
        </mxCell>
        <mxCell id="VgbVPBR_SHMyLfgXZPgQ-113" value="&lt;font style=&quot;font-size: 36px;&quot;&gt;Subscribe for music recommendations!&lt;/font&gt;" style="text;html=1;align=center;verticalAlign=middle;resizable=0;points=[];autosize=1;strokeColor=none;fillColor=none;" vertex="1" parent="1">
          <mxGeometry x="2773" y="190" width="650" height="60" as="geometry" />
        </mxCell>
        <mxCell id="VgbVPBR_SHMyLfgXZPgQ-114" value="Email" style="text;html=1;align=center;verticalAlign=middle;resizable=0;points=[];autosize=1;strokeColor=none;fillColor=none;" vertex="1" parent="1">
          <mxGeometry x="2773" y="290" width="50" height="30" as="geometry" />
        </mxCell>
        <mxCell id="VgbVPBR_SHMyLfgXZPgQ-115" value="" style="rounded=1;whiteSpace=wrap;html=1;" vertex="1" parent="1">
          <mxGeometry x="2773" y="420" width="650" height="50" as="geometry" />
        </mxCell>
        <mxCell id="VgbVPBR_SHMyLfgXZPgQ-116" value="First name" style="text;html=1;align=center;verticalAlign=middle;resizable=0;points=[];autosize=1;strokeColor=none;fillColor=none;" vertex="1" parent="1">
          <mxGeometry x="2773" y="390" width="80" height="30" as="geometry" />
        </mxCell>
        <mxCell id="VgbVPBR_SHMyLfgXZPgQ-117" value="SUBMIT" style="rounded=1;whiteSpace=wrap;html=1;fillColor=#007FFF;strokeColor=#000000;shadow=0;" vertex="1" parent="1">
          <mxGeometry x="3038" y="510" width="132" height="40" as="geometry" />
        </mxCell>
      </root>
    </mxGraphModel>
  </diagram>
</mxfile>
